HIERARCHY
ROOT Hips
{
    OFFSET 0.000000 0.000000 0.000000
    CHANNELS 6 Xposition Yposition Zposition Zrotation Xrotation Yrotation
    JOINT Spine
    {
        OFFSET -0.000000 7.759706 0.000000
        CHANNELS 3 Zrotation Xrotation Yrotation
        JOINT Spine1
        {
            OFFSET -0.000000 19.359465 0.000000
            CHANNELS 3 Zrotation Xrotation Yrotation
            JOINT Neck
            {
                OFFSET -0.000000 19.279959 1.752723
                CHANNELS 3 Zrotation Xrotation Yrotation
                JOINT Head
                {
                    OFFSET -0.000000 13.248279 -1.892611
                    CHANNELS 3 Zrotation Xrotation Yrotation
                    End Site
                    {
                        OFFSET -0.000000 23.657639 0.000000
                    }
                }
            }
            JOINT LeftShoulder
            {
                OFFSET 3.942452 16.271078 -0.349145
                CHANNELS 3 Zrotation Xrotation Yrotation
                JOINT LeftArm
                {
                    OFFSET 14.337545 0.000000 0.000000
                    CHANNELS 3 Zrotation Xrotation Yrotation
                    JOINT LeftForeArm
                    {
                        OFFSET 25.630957 0.000000 0.000000
                        CHANNELS 3 Zrotation Xrotation Yrotation
                        JOINT LeftHand
                        {
                            OFFSET 27.467245 0.000000 0.000000
                            CHANNELS 3 Zrotation Xrotation Yrotation
                            JOINT LeftHandThumb1
                            {
                                OFFSET 2.365764 -1.419458 4.731528
                                CHANNELS 3 Zrotation Xrotation Yrotation
                                JOINT LeftHandThumb2
                                {
                                    OFFSET 2.838917 0.000000 0.000000
                                    CHANNELS 3 Zrotation Xrotation Yrotation
                                    JOINT LeftHandThumb3
                                    {
                                        OFFSET 2.838917 0.000000 0.000000
                                        CHANNELS 3 Zrotation Xrotation Yrotation
                                        End Site
                                        {
                                            OFFSET 2.686483 0.000000 0.000000
                                        }
                                    }
                                }
                            }
                            JOINT LeftHandIndex1
                            {
                                OFFSET 8.096033 0.000000 3.312070
                                CHANNELS 3 Zrotation Xrotation Yrotation
                                JOINT LeftHandIndex2
                                {
                                    OFFSET 4.731528 0.000000 0.000000
                                    CHANNELS 3 Zrotation Xrotation Yrotation
                                    JOINT LeftHandIndex3
                                    {
                                        OFFSET 2.365764 0.000000 0.000000
                                        CHANNELS 3 Zrotation Xrotation Yrotation
                                        End Site
                                        {
                                            OFFSET 2.238736 0.000000 0.000000
                                        }
                                    }
                                }
                            }
                            JOINT LeftHandMiddle1
                            {
                                OFFSET 8.096033 0.000000 1.097714
                                CHANNELS 3 Zrotation Xrotation Yrotation
                                JOINT LeftHandMiddle2
                                {
                                    OFFSET 5.204680 0.000000 0.000000
                                    CHANNELS 3 Zrotation Xrotation Yrotation
                                    JOINT LeftHandMiddle3
                                    {
                                        OFFSET 2.838917 0.000000 0.000000
                                        CHANNELS 3 Zrotation Xrotation Yrotation
                                        End Site
                                        {
                                            OFFSET 2.686483 0.000000 0.000000
                                        }
                                    }
                                }
                            }
                            JOINT LeftHandRing1
                            {
                                OFFSET 5.871846 0.000000 -1.097714
                                CHANNELS 3 Zrotation Xrotation Yrotation
                                JOINT LeftHandRing2
                                {
                                    OFFSET 4.731528 0.000000 0.000000
                                    CHANNELS 3 Zrotation Xrotation Yrotation
                                    JOINT LeftHandRing3
                                    {
                                        OFFSET 2.365764 0.000000 0.000000
                                        CHANNELS 3 Zrotation Xrotation Yrotation
                                        End Site
                                        {
                                            OFFSET 2.238736 0.000000 0.000000
                                        }
                                    }
                                }
                            }
                            JOINT LeftHandPinky1
                            {
                                OFFSET 3.647658 0.000000 -3.312070
                                CHANNELS 3 Zrotation Xrotation Yrotation
                                JOINT LeftHandPinky2
                                {
                                    OFFSET 3.785222 0.000000 0.000000
                                    CHANNELS 3 Zrotation Xrotation Yrotation
                                    JOINT LeftHandPinky3
                                    {
                                        OFFSET 1.892611 0.000000 0.000000
                                        CHANNELS 3 Zrotation Xrotation Yrotation
                                        End Site
                                        {
                                            OFFSET 1.790988 0.000000 0.000000
                                        }
                                    }
                                }
                            }
                        }
                    }
                }
            }
            JOINT RightShoulder
            {
                OFFSET -3.614621 16.271078 -0.349145
                CHANNELS 3 Zrotation Xrotation Yrotation
                JOINT RightArm
                {
                    OFFSET -14.337545 0.000000 0.000000
                    CHANNELS 3 Zrotation Xrotation Yrotation
                    JOINT RightForeArm
                    {
                        OFFSET -25.630957 0.000000 0.000000
                        CHANNELS 3 Zrotation Xrotation Yrotation
                        JOINT RightHand
                        {
                            OFFSET -27.467245 0.000000 0.000000
                            CHANNELS 3 Zrotation Xrotation Yrotation
                            JOINT RightHandThumb1
                            {
                                OFFSET -2.365764 -1.419458 4.731528
                                CHANNELS 3 Zrotation Xrotation Yrotation
                                JOINT RightHandThumb2
                                {
                                    OFFSET -2.838917 0.000000 0.000000
                                    CHANNELS 3 Zrotation Xrotation Yrotation
                                    JOINT RightHandThumb3
                                    {
                                        OFFSET -2.838917 0.000000 0.000000
                                        CHANNELS 3 Zrotation Xrotation Yrotation
                                        End Site
                                        {
                                            OFFSET -2.686483 0.000000 0.000000
                                        }
                                    }
                                }
                            }
                            JOINT RightHandIndex1
                            {
                                OFFSET -8.096033 0.000000 3.312070
                                CHANNELS 3 Zrotation Xrotation Yrotation
                                JOINT RightHandIndex2
                                {
                                    OFFSET -4.731528 0.000000 0.000000
                                    CHANNELS 3 Zrotation Xrotation Yrotation
                                    JOINT RightHandIndex3
                                    {
                                        OFFSET -2.365764 0.000000 0.000000
                                        CHANNELS 3 Zrotation Xrotation Yrotation
                                        End Site
                                        {
                                            OFFSET -2.238736 0.000000 0.000000
                                        }
                                    }
                                }
                            }
                            JOINT RightHandMiddle1
                            {
                                OFFSET -8.096033 0.000000 1.097714
                                CHANNELS 3 Zrotation Xrotation Yrotation
                                JOINT RightHandMiddle2
                                {
                                    OFFSET -5.204680 0.000000 0.000000
                                    CHANNELS 3 Zrotation Xrotation Yrotation
                                    JOINT RightHandMiddle3
                                    {
                                        OFFSET -2.838917 0.000000 0.000000
                                        CHANNELS 3 Zrotation Xrotation Yrotation
                                        End Site
                                        {
                                            OFFSET -2.686483 0.000000 0.000000
                                        }
                                    }
                                }
                            }
                            JOINT RightHandRing1
                            {
                                OFFSET -5.871846 0.000000 -1.097714
                                CHANNELS 3 Zrotation Xrotation Yrotation
                                JOINT RightHandRing2
                                {
                                    OFFSET -4.731528 0.000000 0.000000
                                    CHANNELS 3 Zrotation Xrotation Yrotation
                                    JOINT RightHandRing3
                                    {
                                        OFFSET -2.365764 0.000000 0.000000
                                        CHANNELS 3 Zrotation Xrotation Yrotation
                                        End Site
                                        {
                                            OFFSET -2.238736 0.000000 0.000000
                                        }
                                    }
                                }
                            }
                            JOINT RightHandPinky1
                            {
                                OFFSET -3.647658 0.000000 -3.312070
                                CHANNELS 3 Zrotation Xrotation Yrotation
                                JOINT RightHandPinky2
                                {
                                    OFFSET -3.785222 0.000000 0.000000
                                    CHANNELS 3 Zrotation Xrotation Yrotation
                                    JOINT RightHandPinky3
                                    {
                                        OFFSET -1.892611 0.000000 0.000000
                                        CHANNELS 3 Zrotation Xrotation Yrotation
                                        End Site
                                        {
                                            OFFSET -1.790988 0.000000 0.000000
                                        }
                                    }
                                }
                            }
                        }
                    }
                }
            }
        }
    }
    JOINT LeftUpLeg
    {
        OFFSET 9.463057 0.000000 0.000000
        CHANNELS 3 Zrotation Xrotation Yrotation
        JOINT LeftLeg
        {
            OFFSET -0.000000 -46.650688 0.000000
            CHANNELS 3 Zrotation Xrotation Yrotation
            JOINT LeftFoot
            {
                OFFSET -0.000000 -36.076935 0.000000
                CHANNELS 3 Zrotation Xrotation Yrotation
                JOINT LeftToeBase
                {
                    OFFSET -0.000000 -6.150986 14.194584
                    CHANNELS 3 Zrotation Xrotation Yrotation
                    End Site
                    {
                        OFFSET -0.000000 0.000000 3.785222
                    }
                }
            }
        }
    }
    JOINT RightUpLeg
    {
        OFFSET -9.463057 0.000000 0.000000
        CHANNELS 3 Zrotation Xrotation Yrotation
        JOINT RightLeg
        {
            OFFSET -0.000000 -46.650688 0.000000
            CHANNELS 3 Zrotation Xrotation Yrotation
            JOINT RightFoot
            {
                OFFSET -0.000000 -36.076935 0.000000
                CHANNELS 3 Zrotation Xrotation Yrotation
                JOINT RightToeBase
                {
                    OFFSET -0.000000 -6.150986 14.194584
                    CHANNELS 3 Zrotation Xrotation Yrotation
                    End Site
                    {
                        OFFSET -0.000000 0.000000 3.785222
                    }
                }
            }
        }
    }
}
MOTION
Frames:    5
Frame Time:    0.008333
8.528999    90.234612    -48.734928    0.248740    14.868418    2.269014    -1.222620    -5.887428    -0.079947    -2.341590    5.245434    0.088019    6.324141    0.752093    2.349645    -2.396100    -1.475588    1.173932    12.978697    11.052505    10.159079    -76.169998    11.760608    9.513355    2.554906    30.996948    3.076853    9.208245    -11.716797    -8.789124    -2.558788    -1.480509    30.034296    -0.000000    0.000000    15.033680    -0.000000    0.000000    30.067360    -21.852360    0.000000    0.000000    -43.704723    0.000000    0.000000    -21.852360    0.000000    0.000000    -18.115160    -0.391554    1.533097    -36.236919    0.000000    0.000000    -18.118460    0.000000    0.000000    -14.368619    -0.682216    3.088539    -28.769112    0.000000    0.000000    -14.384556    0.000000    0.000000    -10.501555    -0.874623    4.707522    -21.075010    0.000000    0.000000    -10.537506    0.000000    0.000000    -6.806297    6.858617    -5.996053    56.787235    -10.406746    -23.930248    1.256076    37.195499    -6.213627    -10.799527    -8.281025    -0.629083    5.771125    -4.869601    -40.027554    0.000000    0.000000    -20.136578    0.000000    0.000000    -40.273155    19.377291    0.000000    -0.000000    38.754578    0.000000    -0.000000    19.377291    0.000000    -0.000000    15.346088    -0.032835    -0.165015    30.692225    0.000000    -0.000000    15.346111    0.000000    -0.000000    11.314810    -0.053988    -0.331930    22.629869    0.000000    -0.000000    11.314938    0.000000    -0.000000    7.161325    -0.063454    -0.505018    14.323210    0.000000    -0.000000    7.161605    0.000000    -0.000000    7.474587    -17.888798    0.904542    -1.449429    16.760857    6.107057    -7.892762    -11.953835    15.953934    -0.099537    -2.685700    0.296829    -14.439210    -10.915687    0.498258    7.067596    0.120329    -6.778027    6.785763    -5.232462    -23.141512    -0.176775    1.903131    0.367167
8.486621    90.390121    -48.934765    0.237098    15.370765    2.529485    -1.396409    -5.815156    -0.155951    -1.973746    5.109775    0.002281    6.186404    0.472478    2.301589    -2.519224    -1.555015    1.107203    12.941300    11.335480    10.483815    -76.068710    12.963603    10.563024    2.971149    29.236320    2.790227    8.446986    -11.408316    -10.472944    -1.130899    -0.703954    31.897144    -0.000000    0.000000    15.952045    -0.000000    0.000000    31.904091    -18.215151    0.000000    0.000000    -36.430302    0.000000    0.000000    -18.215151    0.000000    0.000000    -15.595198    -0.333314    1.450582    -31.196438    0.000000    0.000000    -15.598218    0.000000    0.000000    -12.967546    -0.599870    2.914943    -25.962570    0.000000    0.000000    -12.981283    0.000000    0.000000    -10.253921    -0.803905    4.434893    -20.570095    0.000000    0.000000    -10.285049    0.000000    0.000000    -6.893187    7.033241    -6.157964    55.556259    -10.548987    -25.462545    0.601239    36.546051    -5.456318    -10.625793    -7.118114    -0.663845    5.421773    -4.327026    -38.482712    0.000000    0.000000    -19.343845    0.000000    0.000000    -38.687691    19.010647    0.000000    -0.000000    38.021294    0.000000    -0.000000    19.010647    0.000000    -0.000000    15.560938    -0.067786    -0.317295    31.122108    0.000000    -0.000000    15.561054    0.000000    -0.000000    12.110905    -0.116355    -0.638094    24.222919    0.000000    -0.000000    12.111462    0.000000    -0.000000    8.556096    -0.146111    -0.971052    17.114666    0.000000    -0.000000    8.557333    0.000000    -0.000000    7.661046    -19.470284    1.170547    -1.919579    18.585682    5.689911    -7.423915    -12.483533    16.083838    -0.154026    -2.855806    0.461136    -14.641951    -12.049954    0.287685    7.431287    1.396287    -6.819222    6.730291    -5.883415    -23.288769    -0.086542    1.310023    0.181250
8.450237    90.536377    -49.197971    0.206836    15.983061    2.798464    -1.502690    -5.711379    -0.232846    -1.678422    4.867300    -0.086818    6.161780    0.194875    2.325820    -2.760504    -1.649978    1.080827    12.954709    11.717834    10.814141    -75.758980    13.054911    11.114474    2.946346    28.601891    2.921322    8.105874    -13.082755    -11.140176    -2.053067    -1.412162    34.507214    -0.000000    0.000000    17.266256    -0.000000    0.000000    34.532513    -19.089130    0.000000    0.000000    -38.178261    0.000000    0.000000    -19.089130    0.000000    0.000000    -15.869454    -0.174459    0.780338    -31.740431    0.000000    0.000000    -15.870213    0.000000    0.000000    -12.647660    -0.304801    1.569251    -25.302591    0.000000    0.000000    -12.651298    0.000000    0.000000    -9.326653    -0.392489    2.388411    -18.669672    0.000000    0.000000    -9.334834    0.000000    0.000000    -6.989518    7.097224    -6.299339    52.858326    -12.945580    -26.851492    1.511794    39.172508    -6.091284    -10.483612    -7.746896    -0.860324    5.363718    -4.397964    -39.240143    0.000000    0.000000    -19.723129    0.000000    0.000000    -39.446259    17.822248    0.000000    -0.000000    35.644493    0.000000    -0.000000    17.822248    0.000000    -0.000000    14.690249    -0.077393    -0.380025    29.380816    0.000000    -0.000000    14.690408    0.000000    -0.000000    11.557801    -0.133907    -0.763712    23.117138    0.000000    -0.000000    11.558572    0.000000    -0.000000    8.330102    -0.170112    -1.161644    16.663656    0.000000    -0.000000    8.331828    0.000000    -0.000000    7.869008    -21.256212    1.523045    -2.382499    20.488443    5.002123    -6.844457    -12.942648    16.466436    -0.241209    -3.039946    0.725255    -14.905783    -13.453227    -0.155942    7.875493    2.986176    -6.580085    6.392087    -6.583088    -23.589890    -0.131594    1.056266    0.276600
8.406917    90.639114    -49.446690    0.134284    16.581984    3.061889    -1.550496    -5.721467    -0.304914    -1.444744    4.901213    -0.165865    5.986971    -0.285736    2.265677    -2.712337    -1.706792    1.024631    12.938521    11.854737    11.184239    -75.347702    12.873326    11.640520    2.830151    28.155470    3.097598    7.931109    -13.202629    -11.741631    -1.866213    -1.261979    34.055954    -0.000000    0.000000    17.038256    -0.000000    0.000000    34.076511    -18.836084    0.000000    0.000000    -37.672165    0.000000    0.000000    -18.836084    0.000000    0.000000    -16.087999    -0.129732    0.548846    -32.176880    0.000000    0.000000    -16.088436    0.000000    0.000000    -13.338781    -0.232995    1.103284    -26.681587    0.000000    0.000000    -13.340794    0.000000    0.000000    -10.505325    -0.311441    1.679027    -21.019779    0.000000    0.000000    -10.509890    0.000000    0.000000    -7.074265    6.995523    -6.371108    51.634319    -13.122074    -28.293425    1.113521    38.901276    -5.589968    -10.069188    -7.711477    -1.404937    6.030664    -4.724439    -37.940811    0.000000    0.000000    -19.094910    0.000000    0.000000    -38.189819    18.769594    0.000000    -0.000000    37.539188    0.000000    -0.000000    18.769594    0.000000    -0.000000    15.757957    -0.044466    -0.197300    31.516014    0.000000    -0.000000    15.758002    0.000000    -0.000000    12.746181    -0.078505    -0.396664    25.492836    0.000000    -0.000000    12.746418    0.000000    -0.000000    9.643031    -0.102569    -0.603646    19.287144    0.000000    -0.000000    9.643572    0.000000    -0.000000    8.147894    -23.030910    1.947240    -2.860109    22.424290    4.304996    -6.267700    -13.399457    16.927134    -0.304444    -3.141380    0.917556    -15.165996    -14.901217    -0.793962    8.363743    4.729713    -6.246792    6.126127    -7.320253    -23.830515    -0.060629    0.451016    0.128544
8.367337    90.689697    -49.708309    0.053367    17.162485    3.326310    -1.534003    -5.714431    -0.358008    -1.344469    4.956553    -0.223455    6.122105    -0.929382    2.298979    -2.963273    -1.550189    0.968234    13.018175    12.045618    11.394925    -75.011726    12.530039    12.069409    3.041540    26.865276    3.028996    7.637994    -12.261083    -11.971828    -2.062886    -1.342029    33.032658    -0.000000    0.000000    16.528412    -0.000000    0.000000    33.056824    -19.515236    0.000000    0.000000    -39.030476    0.000000    0.000000    -19.515236    0.000000    0.000000    -17.191473    -0.128600    0.485590    -34.383789    0.000000    0.000000    -17.191895    0.000000    0.000000    -14.866683    -0.237400    0.975997    -29.737106    0.000000    0.000000    -14.868550    0.000000    0.000000    -12.470548    -0.328592    1.485456    -24.949615    0.000000    0.000000    -12.474808    0.000000    0.000000    -7.019851    6.937258    -6.578188    52.781513    -10.000180    -29.524368    -1.000536    34.008381    -3.603992    -8.362548    -7.233663    -2.011358    6.067515    -4.802671    -38.225880    0.000000    0.000000    -19.240284    0.000000    0.000000    -38.480564    18.336382    0.000000    -0.000000    36.672764    0.000000    -0.000000    18.336382    0.000000    -0.000000    15.420573    -0.033953    -0.153652    30.841204    0.000000    -0.000000    15.420605    0.000000    -0.000000    12.504687    -0.060046    -0.308832    25.009655    0.000000    -0.000000    12.504827    0.000000    -0.000000    9.500373    -0.078637    -0.469889    19.001390    0.000000    -0.000000    9.500695    0.000000    -0.000000    8.459548    -24.791975    2.599023    -3.272644    24.377825    3.393674    -5.783651    -13.833546    17.418894    -0.338076    -3.340020    1.023684    -15.477266    -16.421925    -1.573337    8.900438    6.676716    -5.806268    5.784087    -8.109859    -24.100801    0.015564    0.013379    -0.033209
